<?xml version="1.0" standalone="no"?>
<!DOCTYPE svg PUBLIC "-//W3C//DTD SVG 20010904//EN"
 "http://www.w3.org/TR/2001/REC-SVG-20010904/DTD/svg10.dtd">
<svg version="1.0" xmlns="http://www.w3.org/2000/svg"
 width="490.000000pt" height="490.000000pt" viewBox="0 0 490.000000 490.000000"
 preserveAspectRatio="xMidYMid meet">
<metadata>
Created by potrace 1.11, written by Peter Selinger 2001-2013
</metadata>
<g transform="translate(0.000000,490.000000) scale(0.100000,-0.100000)"
fill="#000000" stroke="none">
<path d="M330 3430 c0 -18 7 -20 79 -20 66 0 80 -3 86 -17 7 -19 144 -385 260
-698 131 -353 176 -470 185 -475 6 -4 387 -5 473 -1 14 1 16 5 7 20 -5 11 -24
57 -40 103 -17 46 -34 92 -39 103 -5 11 -27 70 -49 130 -47 129 -227 614 -247
665 -7 19 -24 64 -38 100 l-25 65 81 3 c76 3 104 13 91 34 -3 4 -189 8 -415 8
-402 0 -409 0 -409 -20z"/>
<path d="M1864 3433 c1 -15 14 -19 82 -23 l81 -5 -167 -429 c-92 -235 -173
-431 -179 -435 -6 -4 -56 -7 -111 -6 -77 1 -100 -2 -100 -12 0 -9 15 -13 49
-13 l49 0 -1 -141 c0 -87 4 -144 11 -148 8 -5 207 -6 245 -2 4 1 7 65 6 142 0
96 3 144 11 149 11 7 73 5 143 -4 56 -8 119 -39 161 -79 35 -34 96 -149 96
-181 0 -9 8 -19 18 -23 18 -9 688 -10 697 -2 2 3 -4 28 -14 55 -157 425 -348
937 -366 979 -11 25 -25 66 -30 85 -1 3 -7 18 -13 33 -7 16 -12 30 -12 33 0 2
38 4 85 4 78 0 85 2 85 20 0 20 -7 20 -414 20 -388 0 -414 -1 -412 -17z m349
-526 c169 -455 197 -530 197 -535 0 -2 -16 10 -35 27 -47 41 -137 86 -227 112
-60 18 -103 22 -238 24 -133 2 -165 5 -163 16 2 8 27 75 56 149 29 74 96 246
148 382 52 136 96 248 99 248 3 0 76 -190 163 -423z"/>
<path d="M2900 3430 c0 -11 11 -48 24 -82 14 -35 88 -231 164 -437 l140 -373
-62 -157 c-60 -149 -62 -156 -42 -162 25 -7 35 12 97 178 13 34 26 60 30 57 4
-2 26 -56 49 -119 36 -95 47 -115 64 -116 12 0 123 -1 249 -2 198 -2 226 0
221 13 -3 8 -35 94 -71 190 -35 96 -73 198 -84 225 -11 28 -79 211 -153 408
l-133 357 88 0 c82 0 88 1 86 20 -1 20 -8 20 -334 20 -326 0 -333 0 -333 -20z"/>
<path d="M4270 3430 c0 -18 7 -20 86 -20 65 0 85 -3 81 -12 -3 -7 -51 -130
-107 -273 -175 -449 -197 -505 -274 -703 -42 -106 -76 -195 -76 -197 0 -3 10
-5 23 -5 29 0 23 -12 137 285 51 132 125 323 165 425 40 102 98 251 129 333
l58 147 79 0 c72 0 79 2 79 20 0 19 -7 20 -190 20 -183 0 -190 -1 -190 -20z"/>
<path d="M787 2142 c-2 -4 -3 -77 -3 -162 1 -153 1 -155 24 -158 23 -4 23 -6
25 104 1 26 5 30 29 32 l28 2 0 -70 c0 -68 1 -70 25 -70 l25 0 -2 163 c-3 154
-4 162 -23 162 -21 0 -22 -5 -24 -105 -1 -33 -3 -36 -31 -35 l-29 0 1 69 c1
63 -1 70 -20 72 -11 2 -23 0 -25 -4z"/>
<path d="M1190 2137 c-42 -21 -50 -52 -47 -171 3 -100 5 -110 26 -127 42 -34
94 -21 119 29 5 9 8 66 7 125 -1 92 -4 111 -21 126 -27 27 -55 33 -84 18z m48
-54 c4 -10 8 -61 8 -113 -1 -94 -1 -95 -26 -95 -25 0 -25 1 -28 99 -2 64 1
103 9 112 15 19 27 18 37 -3z"/>
<path d="M1545 2140 c-26 -10 -41 -29 -48 -60 -7 -35 1 -51 56 -110 53 -57 60
-92 19 -98 -17 -3 -25 2 -29 17 -3 14 -13 21 -29 21 -27 0 -30 -11 -12 -43 28
-54 93 -64 127 -21 35 45 28 77 -34 144 -56 61 -59 67 -49 94 8 21 31 20 45
-2 8 -12 20 -17 35 -14 28 5 27 4 13 36 -7 14 -25 30 -42 36 -16 5 -30 10 -31
9 -1 0 -10 -4 -21 -9z"/>
<path d="M1847 2136 c-2 -6 -3 -78 -3 -161 1 -148 1 -150 24 -153 19 -3 22 1
23 35 1 21 0 48 -1 61 -1 17 4 22 22 22 19 0 44 12 76 36 2 1 6 24 8 50 6 57
-10 101 -40 110 -35 12 -105 12 -109 0z m91 -45 c9 -5 12 -24 10 -52 -3 -40
-6 -44 -31 -47 -27 -3 -28 -3 -26 45 1 26 4 51 6 56 5 9 25 9 41 -2z"/>
<path d="M2202 2136 c-4 -6 -7 -80 -7 -164 l0 -153 24 3 25 3 -1 155 c-1 85
-2 158 -2 161 -2 10 -32 6 -39 -5z"/>
<path d="M2439 2128 c-7 -13 -5 -19 8 -26 10 -5 24 -7 31 -5 9 4 12 -28 12
-136 l0 -141 24 0 c23 0 24 0 24 128 0 70 1 133 1 140 1 6 13 12 27 12 21 0
25 4 22 22 -3 21 -8 23 -71 23 -55 1 -70 -3 -78 -17z"/>
<path d="M2794 2139 c-5 -8 -54 -286 -54 -306 0 -7 10 -13 23 -13 19 0 25 8
33 37 6 26 15 37 31 39 18 3 22 -3 28 -36 6 -34 10 -40 32 -40 24 0 25 2 19
38 -4 20 -9 53 -12 72 -2 19 -11 73 -19 120 -8 47 -15 87 -15 90 0 8 -61 7
-66 -1z m42 -153 c5 -39 4 -46 -11 -46 -15 0 -17 6 -11 38 3 20 6 43 6 51 0
30 11 2 16 -43z"/>
<path d="M3110 1984 l0 -164 64 0 c44 0 65 4 69 13 10 26 -9 40 -47 35 -20 -2
-36 -2 -37 2 0 3 -1 66 -2 140 -2 132 -2 135 -24 136 -23 1 -23 1 -23 -162z"/>
<path d="M3443 2141 c-5 -3 -8 -77 -8 -163 0 -157 0 -158 22 -158 13 0 23 6
24 13 1 16 1 288 0 303 -1 11 -25 15 -38 5z"/>
<path d="M3680 2136 c-15 -15 7 -45 30 -39 19 5 20 1 20 -136 0 -141 0 -141
23 -141 23 0 23 1 25 133 0 72 1 136 1 140 1 4 7 7 14 6 28 -3 37 2 37 24 0
21 -4 23 -70 23 -39 0 -75 -5 -80 -10z"/>
<path d="M4024 2138 c-2 -4 9 -46 26 -94 22 -64 30 -105 30 -156 0 -65 1 -68
24 -68 23 0 24 3 25 73 1 54 9 94 31 155 35 97 35 99 13 99 -29 0 -40 -15 -54
-69 l-12 -51 -20 61 c-16 47 -25 60 -39 59 -11 -1 -22 -5 -24 -9z"/>
<path d="M1120 1724 c0 -9 109 -303 120 -324 6 -11 17 -16 32 -13 19 4 30 23
62 106 21 56 44 116 51 132 30 72 35 86 35 95 0 6 -62 10 -150 10 -82 0 -150
-3 -150 -6z"/>
<path d="M1569 1698 c0 -18 -1 -87 -2 -153 l-2 -120 -47 -3 c-30 -2 -48 -8
-48 -15 0 -10 72 -12 313 -12 263 1 321 4 372 18 149 43 275 135 333 245 18
33 32 63 32 66 0 3 -60 6 -134 6 l-134 0 -21 -68 c-35 -117 -105 -195 -202
-227 -52 -17 -170 -26 -189 -15 -8 5 -11 54 -11 159 l2 151 -131 0 -130 0 -1
-32z"/>
<path d="M2669 1683 c10 -27 39 -104 65 -173 36 -97 51 -126 66 -127 10 -1 23
4 28 10 7 9 83 199 128 320 6 16 -5 17 -150 17 l-156 0 19 -47z"/>
<path d="M3530 1725 c0 -16 124 -331 132 -336 29 -18 45 2 90 117 26 65 49
126 52 134 3 8 12 32 19 53 l15 37 -154 0 c-85 0 -154 -2 -154 -5z"/>
</g>
</svg>
